PathFileType	4	(X/Y/Z)	Walk9.trc
DataRate	CameraRate	NumFrames	NumMarkers	Units	OrigDataRate	OrigDataStartFrame	OrigNumFrames
200.000000	200.000000	4	61	mm	200.000000	649	817
Frame#	Times		RCAR		LTH3		LTB1		LBHD		RWRU		LWRU		LFA1		RTH2		LUA1		LElbow		LCAR		LTH2		RPSI		RTH3		C7		LElbowM		RFA1		RBHD		RToe		RTB2		RTB3		LTH1		RTB1		RMT5		RElbow		RASI		RLFC		RTB4		LWRR		RMT1		RTH4		T10		RBack		RLMAL		LPSI		CLAV		RMFC		RMMAL		RCAL		RUA1		LMFC		LACR1		LLFC		STRN		RWRR		RTH1		LTH4		LTB4		RElbowM		LASI		LTB3		LMT5		LFHD		RFHD		RACR1		LCAL		LMMAL		LTB2		LLMAL		LToe		LMT1
			X1	Y1	Z1	X2	Y2	Z2	X3	Y3	Z3	X4	Y4	Z4	X5	Y5	Z5	X6	Y6	Z6	X7	Y7	Z7	X8	Y8	Z8	X9	Y9	Z9	X10	Y10	Z10	X11	Y11	Z11	X12	Y12	Z12	X13	Y13	Z13	X14	Y14	Z14	X15	Y15	Z15	X16	Y16	Z16	X17	Y17	Z17	X18	Y18	Z18	X19	Y19	Z19	X20	Y20	Z20	X21	Y21	Z21	X22	Y22	Z22	X23	Y23	Z23	X24	Y24	Z24	X25	Y25	Z25	X26	Y26	Z26	X27	Y27	Z27	X28	Y28	Z28	X29	Y29	Z29	X30	Y30	Z30	X31	Y31	Z31	X32	Y32	Z32	X33	Y33	Z33	X34	Y34	Z34	X35	Y35	Z35	X36	Y36	Z36	X37	Y37	Z37	X38	Y38	Z38	X39	Y39	Z39	X40	Y40	Z40	X41	Y41	Z41	X42	Y42	Z42	X43	Y43	Z43	X44	Y44	Z44	X45	Y45	Z45	X46	Y46	Z46	X47	Y47	Z47	X48	Y48	Z48	X49	Y49	Z49	X50	Y50	Z50	X51	Y51	Z51	X52	Y52	Z52	X53	Y53	Z53	X54	Y54	Z54	X55	Y55	Z55	X56	Y56	Z56	X57	Y57	Z57	X58	Y58	Z58	X59	Y59	Z59	X60	Y60	Z60	X61	Y61	Z61

649	3.245	434.74	846.43	356.94	321.84	618.89	-139.73	308.64	382.93	-74.842	251.49	1652.3	-18.138	369.89	866.47	359.09	281.22	869.37	-228.31	241.17	999.26	-239.29	378.35	715.98	197.26	238.19	1304.1	-208.64	212.85	1148.2	-230.24	354.68	834.48	-238.68	374.32	724.54	-130.91	128.91	1035.5	112.05	311.94	618	216.3	230.21	1523.2	57.638	184.07	1138.1	-158.39	322.05	995.57	366.24	266.31	1658.5	123.1	452.28	32.024	123.32	304.17	274.94	180.44	312.66	191	105.76	291.84	801.68	-145.44	346.19	372.85	127.99	347.01	24.901	177.5	279.92	1141.3	349.14	350.69	1047	191.93	304.7	499.82	203.86	329.53	281.69	115.69	351.49	887.4	-185.96	399.75	39.125	99.667	314.57	709.62	231.4	122.63	1301.4	66.593	166.73	1434	196.7	255.3	69.482	140.49	117.69	1029.4	34.612	359	1432.5	44.234	309.03	518.46	72.798	291.73	95.676	63.492	201.75	34.299	87.247	305.91	1295.8	307.57	357.31	518.98	-11.384	284.27	1476.1	-116.73	322.52	524.25	-134.75	403.02	1259.4	33.505	419.52	883.89	303.54	308.92	807.53	241.85	304.72	709.78	-144.26	242.65	322.52	-67.826	244.27	1123.4	279.08	316.46	1045	-91.511	171.59	257.79	-63.127	72.336	93.141	-130.45	433.12	1691.6	6.0385	439.99	1693.9	82.298	321.88	1466.9	208.4	-16.482	198.63	-27.804	93.914	186.14	-16.095	212.84	349.86	-132.05	42.319	198.42	-87.5	162.52	48.003	-90.758	128.43	69.164	-62.389
650	3.25	444.91	848.32	356.03	329.58	620.05	-139.84	319.11	383.94	-74.856	256.08	1652.6	-17.575	379.84	867.53	358.57	282.03	869.56	-227.68	242.72	999.64	-238.55	381.26	715.53	197.27	241.52	1304.5	-208.08	215.3	1148.7	-229.5	355.22	834.1	-237.9	381.13	726.16	-131.03	133.44	1035.8	112.35	314.15	618.04	216.37	234.91	1523.5	58.185	186.65	1138.9	-157.58	330.71	996.13	366.27	271.08	1658.8	123.64	452.36	31.983	123.33	304.8	274.89	180.42	313.04	190.93	105.72	297.97	802.61	-145.34	347.11	372.69	127.97	347.01	24.907	177.5	287.06	1141.5	349.69	355.04	1047.3	192.34	306.08	499.82	203.87	330.15	281.56	115.68	352.37	887.1	-185.26	399.78	39.125	99.661	317.49	709.94	231.81	127.29	1301.7	67.181	171.58	1434.2	197.34	255.36	69.561	140.41	122.13	1029.8	34.843	363.66	1432.8	44.61	310.48	518.49	72.755	291.77	95.672	63.49	201.75	34.427	87.192	311.93	1296.2	307.9	368.34	521.09	-11.865	288.64	1476.5	-116.33	331.14	525.47	-134.74	407.65	1259.7	33.766	429	885.6	302.71	312.55	807.58	241.88	311.55	710.81	-144.38	253.9	322.63	-67.68	251.12	1123.4	279.77	321.27	1045.5	-90.963	183.72	256.94	-62.824	87.206	91.163	-130.04	437.73	1691.9	6.3812	444.7	1694.2	82.634	326.72	1467.2	208.76	-3.5675	194.73	-27.178	107.14	184.2	-15.633	223.46	349.73	-131.75	55.267	195.71	-86.938	178.28	47.368	-90.622	143.87	68.132	-62.131
651	3.255	455.05	850.24	355.11	337.26	621.21	-139.93	329.52	384.94	-74.795	260.67	1652.9	-17.028	389.76	868.61	358.02	282.86	869.76	-227.04	244.26	1000	-237.81	384.16	715.07	197.26	244.83	1304.9	-207.55	217.73	1149.3	-228.78	355.79	833.75	-237.14	387.92	727.76	-131.12	137.95	1036.2	112.62	316.33	618.08	216.42	239.6	1523.8	58.712	189.22	1139.6	-156.77	339.34	996.71	366.28	275.84	1659.1	124.16	452.43	31.943	123.35	305.41	274.84	180.4	313.41	190.87	105.68	304.06	803.54	-145.25	348.02	372.54	127.95	347.01	24.914	177.5	294.15	1141.8	350.22	359.35	1047.6	192.79	307.43	499.82	203.88	330.77	281.43	115.67	353.29	886.83	-184.58	399.81	39.127	99.655	320.37	710.25	232.22	131.94	1302.1	67.732	176.41	1434.5	197.95	255.41	69.642	140.34	126.57	1030.2	35.046	368.32	1433.1	44.977	311.92	518.51	72.709	291.81	95.667	63.494	201.75	34.556	87.141	317.91	1296.6	308.22	379.08	523.17	-12.29	293.03	1476.9	-115.94	339.67	526.66	-134.73	412.26	1260	34.038	438.47	887.35	301.88	316.18	807.61	241.9	318.35	711.83	-144.5	265.17	322.68	-67.477	257.95	1123.5	280.43	326.11	1045.9	-90.401	195.93	255.97	-62.482	102.34	89.016	-129.63	442.36	1692.2	6.7189	449.42	1694.5	82.964	331.54	1467.6	209.11	9.5445	190.56	-26.58	120.51	182.09	-15.169	234.12	349.46	-131.43	68.4	192.77	-86.388	194.29	46.658	-90.437	159.54	66.99	-61.838
652	3.26	465.14	852.18	354.19	344.89	622.36	-140.01	339.87	385.92	-74.656	265.26	1653.1	-16.495	399.64	869.71	357.45	283.72	869.97	-226.38	245.81	1000.4	-237.08	387.05	714.59	197.24	248.12	1305.3	-207.04	220.15	1149.8	-228.08	356.39	833.43	-236.39	394.66	729.34	-131.18	142.44	1036.5	112.86	318.51	618.1	216.46	244.29	1524.1	59.22	191.79	1140.3	-155.99	347.92	997.29	366.27	280.61	1659.4	124.68	452.51	31.905	123.37	306.02	274.8	180.39	313.77	190.81	105.65	310.09	804.47	-145.19	348.92	372.38	127.93	347	24.922	177.5	301.2	1142	350.74	363.61	1047.8	193.29	308.78	499.81	203.88	331.39	281.31	115.65	354.25	886.6	-183.93	399.84	39.131	99.652	323.22	710.54	232.6	136.59	1302.4	68.243	181.23	1434.7	198.53	255.46	69.724	140.28	131	1030.6	35.225	372.97	1433.4	45.333	313.35	518.52	72.663	291.84	95.662	63.503	201.73	34.687	87.096	323.85	1297.1	308.53	389.48	525.2	-12.646	297.42	1477.2	-115.56	348.13	527.82	-134.7	416.85	1260.2	34.321	447.92	889.12	301.04	319.8	807.64	241.91	325.12	712.84	-144.62	276.45	322.68	-67.214	264.74	1123.5	281.07	330.97	1046.4	-89.832	208.24	254.89	-62.104	117.73	86.72	-129.21	446.98	1692.5	7.0512	454.14	1694.8	83.289	336.34	1467.9	209.46	22.86	186.14	-26.009	134.04	179.83	-14.703	244.83	349.05	-131.1	81.717	189.61	-85.849	210.54	45.888	-90.218	175.43	65.752	-61.52
